<svg xmlns="http://www.w3.org/2000/svg" xmlns:xlink="http://www.w3.org/1999/xlink" width="614" zoomAndPan="magnify" viewBox="0 0 460.5 455.249995" height="607" preserveAspectRatio="xMidYMid meet" version="1.0"><defs><g/><clipPath id="0b84c16626"><path d="M 195 16.761719 L 264 16.761719 L 264 85 L 195 85 Z M 195 16.761719 " clip-rule="nonzero"/></clipPath><clipPath id="929ade8a55"><path d="M 195 318 L 264 318 L 264 386.304688 L 195 386.304688 Z M 195 318 " clip-rule="nonzero"/></clipPath><clipPath id="c929e5efec"><path d="M 31.425781 198 L 74 198 L 74 205 L 31.425781 205 Z M 31.425781 198 " clip-rule="nonzero"/></clipPath><clipPath id="8bb136da5a"><path d="M 407 132 L 428.703125 132 L 428.703125 170 L 407 170 Z M 407 132 " clip-rule="nonzero"/></clipPath><clipPath id="252ea15b90"><path d="M 407 233 L 428.703125 233 L 428.703125 271 L 407 271 Z M 407 233 " clip-rule="nonzero"/></clipPath></defs><path fill="#4a555f" d="M 119.160156 173.328125 C 103.625 173.328125 90.996094 185.984375 90.996094 201.542969 C 90.996094 217.089844 103.625 229.746094 119.160156 229.746094 C 134.6875 229.746094 147.320312 217.089844 147.320312 201.542969 C 147.320312 185.984375 134.6875 173.328125 119.160156 173.328125 Z M 119.160156 235.351562 C 100.546875 235.351562 85.398438 220.183594 85.398438 201.542969 C 85.398438 182.890625 100.546875 167.71875 119.160156 167.71875 C 137.769531 167.71875 152.917969 182.890625 152.917969 201.542969 C 152.917969 220.183594 137.769531 235.351562 119.160156 235.351562 " fill-opacity="1" fill-rule="nonzero"/><path fill="#dfdfdf" d="M 119.160156 223.203125 C 107.230469 223.203125 97.527344 213.480469 97.527344 201.542969 C 97.527344 189.589844 107.230469 179.871094 119.160156 179.871094 C 131.085938 179.871094 140.789062 189.589844 140.789062 201.542969 C 140.789062 213.480469 131.085938 223.203125 119.160156 223.203125 " fill-opacity="1" fill-rule="nonzero"/><path fill="#4a555f" d="M 335.8125 123.007812 C 320.28125 123.007812 307.648438 135.667969 307.648438 151.21875 C 307.648438 166.769531 320.28125 179.425781 335.8125 179.425781 C 351.34375 179.425781 363.976562 166.769531 363.976562 151.21875 C 363.976562 135.667969 351.34375 123.007812 335.8125 123.007812 Z M 335.8125 185.035156 C 317.199219 185.035156 302.054688 169.863281 302.054688 151.21875 C 302.054688 132.574219 317.199219 117.402344 335.8125 117.402344 C 354.425781 117.402344 369.570312 132.574219 369.570312 151.21875 C 369.570312 169.863281 354.425781 185.035156 335.8125 185.035156 " fill-opacity="1" fill-rule="nonzero"/><path fill="#dfdfdf" d="M 335.8125 172.882812 C 323.882812 172.882812 314.179688 163.164062 314.179688 151.21875 C 314.179688 139.269531 323.882812 129.554688 335.8125 129.554688 C 347.742188 129.554688 357.441406 139.269531 357.441406 151.21875 C 357.441406 163.164062 347.742188 172.882812 335.8125 172.882812 " fill-opacity="1" fill-rule="nonzero"/><path fill="#4a555f" d="M 335.8125 223.652344 C 320.28125 223.652344 307.648438 236.300781 307.648438 251.855469 C 307.648438 267.410156 320.28125 280.058594 335.8125 280.058594 C 351.34375 280.058594 363.976562 267.410156 363.976562 251.855469 C 363.976562 236.300781 351.34375 223.652344 335.8125 223.652344 Z M 335.8125 285.671875 C 317.199219 285.671875 302.054688 270.5 302.054688 251.855469 C 302.054688 233.214844 317.199219 218.042969 335.8125 218.042969 C 354.425781 218.042969 369.570312 233.214844 369.570312 251.855469 C 369.570312 270.5 354.425781 285.671875 335.8125 285.671875 " fill-opacity="1" fill-rule="nonzero"/><path fill="#dfdfdf" d="M 335.8125 273.519531 C 323.882812 273.519531 314.179688 263.800781 314.179688 251.855469 C 314.179688 239.914062 323.882812 230.191406 335.8125 230.191406 C 347.742188 230.191406 357.441406 239.914062 357.441406 251.855469 C 357.441406 263.800781 347.742188 273.519531 335.8125 273.519531 " fill-opacity="1" fill-rule="nonzero"/><g clip-path="url(#0b84c16626)"><path fill="#4a555f" d="M 229.390625 22.367188 C 213.859375 22.367188 201.222656 35.023438 201.222656 50.578125 C 201.222656 66.132812 213.859375 78.785156 229.390625 78.785156 C 244.929688 78.785156 257.5625 66.132812 257.5625 50.578125 C 257.5625 35.023438 244.929688 22.367188 229.390625 22.367188 Z M 229.390625 84.390625 C 210.761719 84.390625 195.617188 69.21875 195.617188 50.578125 C 195.617188 31.9375 210.761719 16.765625 229.390625 16.765625 C 248.019531 16.765625 263.167969 31.9375 263.167969 50.578125 C 263.167969 69.21875 248.019531 84.390625 229.390625 84.390625 " fill-opacity="1" fill-rule="nonzero"/></g><path fill="#f58e6f" d="M 229.394531 72.242188 C 217.460938 72.242188 207.753906 62.523438 207.753906 50.578125 C 207.753906 38.628906 217.460938 28.914062 229.394531 28.914062 C 241.324219 28.914062 251.035156 38.628906 251.035156 50.578125 C 251.035156 62.523438 241.324219 72.242188 229.394531 72.242188 " fill-opacity="1" fill-rule="nonzero"/><path fill="#4a555f" d="M 229.394531 123.003906 C 213.859375 123.003906 201.222656 135.667969 201.222656 151.21875 C 201.222656 166.769531 213.859375 179.425781 229.394531 179.425781 C 244.933594 179.425781 257.5625 166.769531 257.5625 151.21875 C 257.5625 135.667969 244.933594 123.003906 229.394531 123.003906 Z M 229.394531 185.03125 C 210.761719 185.03125 195.617188 169.863281 195.617188 151.21875 C 195.617188 132.574219 210.761719 117.402344 229.394531 117.402344 C 248.019531 117.402344 263.167969 132.574219 263.167969 151.21875 C 263.167969 169.863281 248.019531 185.03125 229.394531 185.03125 " fill-opacity="1" fill-rule="nonzero"/><path fill="#f58e6f" d="M 229.390625 172.882812 C 217.460938 172.882812 207.753906 163.164062 207.753906 151.21875 C 207.753906 139.269531 217.460938 129.554688 229.390625 129.554688 C 241.324219 129.554688 251.035156 139.269531 251.035156 151.21875 C 251.035156 163.164062 241.324219 172.882812 229.390625 172.882812 " fill-opacity="1" fill-rule="nonzero"/><path fill="#4a555f" d="M 229.394531 223.648438 C 213.859375 223.648438 201.222656 236.300781 201.222656 251.855469 C 201.222656 267.410156 213.859375 280.058594 229.394531 280.058594 C 244.929688 280.058594 257.5625 267.410156 257.5625 251.855469 C 257.5625 236.300781 244.929688 223.648438 229.394531 223.648438 Z M 229.394531 285.671875 C 210.761719 285.671875 195.613281 270.5 195.613281 251.855469 C 195.613281 233.214844 210.761719 218.039062 229.394531 218.039062 C 248.019531 218.039062 263.167969 233.214844 263.167969 251.855469 C 263.167969 270.5 248.019531 285.671875 229.394531 285.671875 " fill-opacity="1" fill-rule="nonzero"/><path fill="#f58e6f" d="M 229.394531 273.519531 C 217.460938 273.519531 207.753906 263.800781 207.753906 251.855469 C 207.753906 239.917969 217.460938 230.191406 229.394531 230.191406 C 241.324219 230.191406 251.035156 239.917969 251.035156 251.855469 C 251.035156 263.800781 241.324219 273.519531 229.394531 273.519531 " fill-opacity="1" fill-rule="nonzero"/><g clip-path="url(#929ade8a55)"><path fill="#4a555f" d="M 229.394531 324.289062 C 213.859375 324.289062 201.222656 336.945312 201.222656 352.492188 C 201.222656 368.050781 213.859375 380.703125 229.394531 380.703125 C 244.929688 380.703125 257.5625 368.050781 257.5625 352.492188 C 257.5625 336.945312 244.929688 324.289062 229.394531 324.289062 Z M 229.394531 386.308594 C 210.761719 386.308594 195.613281 371.144531 195.613281 352.492188 C 195.613281 333.847656 210.761719 318.679688 229.394531 318.679688 C 248.019531 318.679688 263.167969 333.847656 263.167969 352.492188 C 263.167969 371.144531 248.019531 386.308594 229.394531 386.308594 " fill-opacity="1" fill-rule="nonzero"/></g><path fill="#f58e6f" d="M 229.394531 374.164062 C 217.460938 374.164062 207.753906 364.441406 207.753906 352.492188 C 207.753906 340.546875 217.460938 330.828125 229.394531 330.828125 C 241.324219 330.828125 251.035156 340.546875 251.035156 352.492188 C 251.035156 364.441406 241.324219 374.164062 229.394531 374.164062 " fill-opacity="1" fill-rule="nonzero"/><path fill="#4a555f" d="M 147.457031 188.78125 L 144.742188 183.878906 L 197.0625 154.804688 L 199.777344 159.707031 L 147.457031 188.78125 " fill-opacity="1" fill-rule="nonzero"/><path fill="#4a555f" d="M 197.0625 248.628906 L 144.742188 219.546875 L 147.457031 214.644531 L 199.777344 243.722656 L 197.0625 248.628906 " fill-opacity="1" fill-rule="nonzero"/><g clip-path="url(#c929e5efec)"><path fill="#4a555f" d="M 73.839844 204.34375 L 31.589844 204.34375 L 31.589844 198.730469 L 73.839844 198.730469 L 73.839844 204.34375 " fill-opacity="1" fill-rule="nonzero"/></g><path fill="#4a555f" d="M 60.636719 219.664062 L 56.554688 215.820312 L 70.027344 201.5 L 56.523438 186.601562 L 60.667969 182.839844 L 77.652344 201.574219 L 60.636719 219.664062 " fill-opacity="1" fill-rule="nonzero"/><path fill="#4a555f" d="M 424.726562 154.320312 L 382.480469 154.320312 L 382.480469 148.71875 L 424.726562 148.71875 L 424.726562 154.320312 " fill-opacity="1" fill-rule="nonzero"/><g clip-path="url(#8bb136da5a)"><path fill="#4a555f" d="M 411.519531 169.648438 L 407.441406 165.804688 L 420.90625 151.480469 L 407.410156 136.589844 L 411.546875 132.824219 L 428.539062 151.558594 L 411.519531 169.648438 " fill-opacity="1" fill-rule="nonzero"/></g><path fill="#4a555f" d="M 424.726562 254.964844 L 382.480469 254.964844 L 382.480469 249.351562 L 424.726562 249.351562 L 424.726562 254.964844 " fill-opacity="1" fill-rule="nonzero"/><g clip-path="url(#252ea15b90)"><path fill="#4a555f" d="M 411.519531 270.289062 L 407.441406 266.445312 L 420.90625 252.121094 L 407.410156 237.230469 L 411.546875 233.457031 L 428.539062 252.195312 L 411.519531 270.289062 " fill-opacity="1" fill-rule="nonzero"/></g><path fill="#4a555f" d="M 255.601562 234.527344 L 251.640625 230.5625 L 311.496094 170.625 L 315.449219 174.589844 L 255.601562 234.527344 " fill-opacity="1" fill-rule="nonzero"/><path fill="#4a555f" d="M 310.464844 233.496094 L 250.683594 173.636719 L 254.648438 169.667969 L 314.417969 229.535156 L 310.464844 233.496094 " fill-opacity="1" fill-rule="nonzero"/><path fill="#4a555f" d="M 129.613281 173.382812 L 125.214844 169.914062 L 204.050781 69.457031 L 208.449219 72.917969 L 129.613281 173.382812 " fill-opacity="1" fill-rule="nonzero"/><path fill="#4a555f" d="M 204.054688 333.214844 L 125.214844 232.742188 L 129.613281 229.28125 L 208.449219 329.746094 L 204.054688 333.214844 " fill-opacity="1" fill-rule="nonzero"/><path fill="#4a555f" d="M 311.496094 131.742188 L 251.648438 71.871094 L 255.601562 67.902344 L 315.449219 127.78125 L 311.496094 131.742188 " fill-opacity="1" fill-rule="nonzero"/><path fill="#4a555f" d="M 255.601562 335.367188 L 251.648438 331.398438 L 311.496094 271.523438 L 315.449219 275.488281 L 255.601562 335.367188 " fill-opacity="1" fill-rule="nonzero"/><g fill="#4a555f" fill-opacity="1"><g transform="translate(25.705534, 444.156143)"><g><path d="M 10.617188 -42.46875 C 5.945312 -42.46875 2.125 -38.648438 2.125 -33.976562 L 2.125 0 L 10.617188 0 L 10.617188 -16.988281 L 36.097656 -16.988281 L 36.097656 0 L 44.59375 0 L 44.59375 -33.976562 C 44.59375 -38.648438 40.769531 -42.46875 36.097656 -42.46875 Z M 10.617188 -33.976562 L 36.097656 -33.976562 L 36.097656 -25.480469 L 10.617188 -25.480469 Z M 10.617188 -33.976562 "/></g></g></g><g fill="#4a555f" fill-opacity="1"><g transform="translate(80.809632, 444.156143)"><g><path d="M 10.617188 -42.46875 C 5.945312 -42.46875 2.125 -38.648438 2.125 -33.976562 L 2.125 0 L 10.617188 0 L 10.617188 -16.988281 L 36.097656 -16.988281 L 36.097656 0 L 44.59375 0 L 44.59375 -33.976562 C 44.59375 -38.648438 40.769531 -42.46875 36.097656 -42.46875 Z M 10.617188 -33.976562 L 36.097656 -33.976562 L 36.097656 -25.480469 L 10.617188 -25.480469 Z M 10.617188 -33.976562 "/></g></g></g><g fill="#4a555f" fill-opacity="1"><g transform="translate(135.913729, 444.156143)"><g><path d="M 44.59375 -33.976562 C 44.59375 -38.648438 40.769531 -42.46875 36.097656 -42.46875 L 2.125 -42.46875 L 2.125 0 L 10.617188 0 L 10.617188 -16.988281 L 15.609375 -16.988281 L 31.320312 -1.273438 C 32.171875 -0.425781 33.230469 0 34.398438 0 L 44.59375 0 L 44.59375 -8.492188 L 36.097656 -8.492188 L 27.605469 -16.988281 L 36.097656 -16.988281 C 40.769531 -16.988281 44.59375 -20.808594 44.59375 -25.480469 Z M 36.097656 -33.976562 L 36.097656 -25.480469 L 10.617188 -25.480469 L 10.617188 -33.976562 Z M 36.097656 -33.976562 "/></g></g></g><g fill="#4a555f" fill-opacity="1"><g transform="translate(191.017836, 444.156143)"><g><path d="M 36.097656 -25.480469 L 10.617188 -25.480469 L 10.617188 -42.46875 L 2.125 -42.46875 L 2.125 -25.480469 C 2.125 -20.808594 5.945312 -16.988281 10.617188 -16.988281 L 36.097656 -16.988281 L 36.097656 -8.492188 L 2.125 -8.492188 L 2.125 0 L 36.097656 0 C 40.769531 0 44.59375 -3.820312 44.59375 -8.492188 L 44.59375 -42.46875 L 36.097656 -42.46875 Z M 36.097656 -25.480469 "/></g></g></g><g fill="#4a555f" fill-opacity="1"><g transform="translate(246.121925, 444.156143)"><g><path d="M 10.617188 -42.46875 C 5.945312 -42.46875 2.125 -38.648438 2.125 -33.976562 L 2.125 0 L 10.617188 0 L 10.617188 -16.988281 L 36.097656 -16.988281 L 36.097656 0 L 44.59375 0 L 44.59375 -33.976562 C 44.59375 -38.648438 40.769531 -42.46875 36.097656 -42.46875 Z M 10.617188 -33.976562 L 36.097656 -33.976562 L 36.097656 -25.480469 L 10.617188 -25.480469 Z M 10.617188 -33.976562 "/></g></g></g><g fill="#4a555f" fill-opacity="1"><g transform="translate(301.226015, 444.156143)"><g/></g></g><g fill="#4a555f" fill-opacity="1"><g transform="translate(332.971909, 444.156143)"><g><path d="M 10.617188 -42.46875 C 5.945312 -42.46875 2.125 -38.648438 2.125 -33.976562 L 2.125 0 L 10.617188 0 L 10.617188 -16.988281 L 36.097656 -16.988281 L 36.097656 0 L 44.59375 0 L 44.59375 -33.976562 C 44.59375 -38.648438 40.769531 -42.46875 36.097656 -42.46875 Z M 10.617188 -33.976562 L 36.097656 -33.976562 L 36.097656 -25.480469 L 10.617188 -25.480469 Z M 10.617188 -33.976562 "/></g></g></g><g fill="#4a555f" fill-opacity="1"><g transform="translate(388.075999, 444.156143)"><g><path d="M 44.59375 0 L 44.59375 -8.492188 L 27.605469 -8.492188 L 27.605469 -33.976562 L 44.59375 -33.976562 L 44.59375 -42.46875 L 2.125 -42.46875 L 2.125 -33.976562 L 19.109375 -33.976562 L 19.109375 -8.492188 L 2.125 -8.492188 L 2.125 0 Z M 44.59375 0 "/></g></g></g></svg>